<svg width="178" height="187" xmlns="http://www.w3.org/2000/svg"><g fill-rule="nonzero" fill="none"><path d="M175.75 86.71c-5.274-14.587-15.16-30.978-15.16-30.978s-8.43-.826-11-.951a11.282 11.282 0 00-.624-2.109c-7.254-17.624-68.265-15.548-75.119-15.548C34.45 39.09 16.848 34.298 6.15 0c0 0-.346 65.824-3.616 98.296C.666 111.883.368 139.773.249 142.023c-.12 2.25-.249 6.484-.249 6.484v38.32s29.5.173 30.643.173c30.037 0 46.122-25.543 46.339-25.662-20.097 5.652-30.551 6.467-30.551 1.603 0-19.163 58.899-26.358 74.247-26.358 7.038 0 18.094-2.174 24.45-6.62 1.267 2.604 1.267 8.886 1.267 8.886 9.545-2.26 14.076-7.608 22.23-17.113 10.102-11.859 11.283-26.342 7.125-35.027z" fill="#FFF"/><path d="M12.146 27c13.46 22.36 58.372 17.209 65.805 17.209 19.982 0 77.551 2.276 62.316 17.534 0 0 9.978.093 16.19.794 0 0 7.775 12.823 12.874 27.049 0 0 6.435 13.117-5.968 27.641-12.402 14.525-11.143 11.808-11.143 11.808s-1.357-15.905-9.989-16.03c0 0 12.913 13.547-21.544 16.584 0 0-58.774-.049-77.774 23.235 0 0-17.638 24.343 14.877 18.371 0 0-41.331 25.838-49.529-11.008 0 0-3.461-28.294 1.085-61.043.016 0 4.753-57.027 2.8-72.144z" fill="#231F20"/><path d="M82.437 107.158c-8.075-2.699-37.547 2.079-47.644 5.307-1.334-5.674 1.23-15.77 1.23-15.77 23.001-16.735 81.41-28.488 81.41-28.488 28.48-8.06-.353-14.717-.353-14.717-21.814-4-50.945-1.08-50.945-1.08C22.018 55.37 18.44 48 18.44 48c.282 19.51-1.122 33.088-3.43 55.136C8.63 164.055 19.47 169 19.47 169c7.82-10.63 4.021-17.772 3.675-33.601-.938-19.473-1.626-38.827 4.064-59.628 16.72-6.263 75.335-16.045 75.335-16.045-2.602-.351-5.463-.427-5.463-.427a22.807 22.807 0 017.045-.993c3.794.335 3.209 1.134 3.209 1.134-.586 1.209-3.176 1.652-3.176 1.652-33.5 5.544-73.232 26.934-73.232 26.934-6.417 27.063 3.523 50.083.39 66.619 5.128-7.71 13.978-19.737 33.9-25.455 17.355-4.983 17.22-22.032 17.22-22.032z" fill="#4F2683"/><path d="M113.972 76l-4.609 1.03c.037.155.055.314.054.474.024 1.207-.85 2.236-2.02 2.378-1.17.143-2.255-.648-2.508-1.827L98 79.592s1.91 6.127 9.68 3.934c.01-.022 6.808-.964 6.292-7.526z" fill="#FFC425"/><path d="M164.385 89.544c-2.131-6.686-10.942-23.073-10.942-23.073-20.197-2.339-27.78 4.797-27.78 4.797 24.88-.234 25.394 3.597 25.394 3.597-8.919-.63-18.455-.092-28.028 1.189 1.98.244 6.301 1.378 6.398 6.674 0 0 .682 4.64-6.96 5.584 0 0 3.996-2.095 3.926-6.137 0 0-.238-3.066-4.327-3.495-4.203 9.767-17.85 14.602-17.85 14.602-14.036 4.765-22.787-3.022-26.081-6.864-.308 2.545-.757 11.157 7.075 12.437 11.174-.228 19.504.271 19.504.271 24.421 1.596 5.193 8.607 5.193 8.607 45.58-10.31 44.25 13.267 44.25 13.267 17.844-17.093 10.228-31.456 10.228-31.456zm-23.745.39a4.552 4.552 0 01-4.538-3.603 5.739 5.739 0 002.466.483c2.359-.043 4.252-1.356 4.225-2.936-.027-1.486-1.753-2.658-3.916-2.762a4.557 4.557 0 015.612 1.886c.84 1.4.87 3.145.08 4.575a4.558 4.558 0 01-3.907 2.357h-.022z" fill="#FFC425"/><path d="M73.476 88c-17.451 5.66-29.588 10.993-29.588 10.993L42 105c9.925-3.87 23.794-5.478 36-6.082-3.47-3.399-4.368-7.84-4.524-10.918z" fill="#4F2683"/><path d="M127.326 112.417c-14.175 2.439-34.326.182-34.326.182 4.178 11.379 36.119 7.9 36.119 7.9 9.11-.617 7.818-5.072 7.818-5.072-.728-5.078-9.611-3.01-9.611-3.01z" fill="#FFC425"/><path d="M9.835 178.005l1.338 3.576 1.326-3.576H14V183h-.956v-4.032L11.594 183h-.826l-1.473-4.032V183h-.96v-4.995h1.5zM3 178.84V178h4.497v.839H5.754v4.156h-1.04v-4.156H3z" fill="#231F20"/></g></svg>